<svg width="40" height="40" viewBox="0 0 40 40" fill="none" xmlns="http://www.w3.org/2000/svg">
<path d="M0 4.44444V35.5556C0 38 1.97778 40 4.44444 40H35.5556C38 40 40 38 40 35.5556V4.44444C40 2 38 0 35.5556 0H4.44444C1.97778 0 0 2 0 4.44444ZM26.6667 13.3333C26.6667 17.0222 23.6889 20 20 20C16.3111 20 13.3333 17.0222 13.3333 13.3333C13.3333 9.64444 16.3111 6.66667 20 6.66667C23.6889 6.66667 26.6667 9.64444 26.6667 13.3333ZM6.66667 31.1111C6.66667 26.6667 15.5556 24.2222 20 24.2222C24.4444 24.2222 33.3333 26.6667 33.3333 31.1111V33.3333H6.66667V31.1111Z" fill="#727070"/>
</svg>
