<svg width="150" height="29" viewBox="0 0 150 29" fill="none" xmlns="http://www.w3.org/2000/svg">
<path d="M111.318 27.4479H102.198C101.209 27.4479 100.241 27.2947 100.059 26.145C99.8483 24.8002 100.851 24.208 101.925 24.1104C103.79 23.935 105.665 23.893 107.537 23.985C107.872 24.0522 108.219 24.0223 108.538 23.8987C108.856 23.7752 109.132 23.5633 109.333 23.2883C109.551 22.8556 109.666 22.3788 109.669 21.8947C109.723 21.2184 109.7 20.5382 109.599 19.8671C109.558 19.4073 109.348 18.9785 109.01 18.6617C107.951 17.8186 105.594 18.5572 104.289 18.3203C103.939 18.2855 103.6 18.1825 103.29 18.0172C102.98 17.8519 102.707 17.6275 102.484 17.357C102.262 17.0864 102.096 16.775 101.995 16.4406C101.894 16.1061 101.861 15.7552 101.897 15.4078C102.17 3.61159 100.22 6.06421 111.255 5.79247C113.703 5.73673 116.165 5.79247 118.599 5.79247C119.708 5.79247 120.809 5.89698 120.858 7.32535C120.907 8.75372 119.862 9.26933 118.55 9.26933C115.169 9.26933 111.788 9.40868 108.414 9.26933C106.113 9.15785 106.057 10.3911 106.092 12.0564C106.127 13.7217 105.958 15.0246 108.343 14.9062C111.718 14.7459 115.099 14.9062 118.48 14.8574C119.883 14.8574 121.988 15.6935 120.879 17.4842C120.611 17.8741 120.206 18.15 119.743 18.2576C118.235 18.6966 116.628 17.7768 115.197 18.2576C114.033 18.613 113.724 19.9438 113.598 21.0029C113.425 21.694 113.526 22.4245 113.878 23.0444C114.302 23.4945 114.875 23.7767 115.492 23.8387C116.543 24.0415 117.614 24.1233 118.684 24.0826C119.384 24.0321 120.088 24.0321 120.788 24.0826C121.509 24.1392 122.177 24.4775 122.647 25.0232C122.875 25.2978 123 25.6427 123 25.9987C123 26.3547 122.875 26.6995 122.647 26.9741C122.177 27.3346 121.592 27.5151 120.999 27.4828C117.772 27.5664 114.524 27.4479 111.318 27.4479Z" fill="#E79DAE"/>
<path d="M81.5951 5.79241H85.8041C86.8003 5.79241 87.7262 5.9875 87.9086 7.18594C87.9745 7.44828 87.9744 7.72265 87.9085 7.98497C87.8427 8.2473 87.7129 8.48954 87.5308 8.69043C87.3486 8.89132 87.1196 9.04471 86.8638 9.13713C86.608 9.22955 86.3332 9.25818 86.0637 9.22049C83.6926 9.11598 83.889 10.614 83.8399 12.1469C83.7206 16.4878 83.5102 20.7868 87.8876 23.5948C88.1509 23.7345 88.3765 23.935 88.5456 24.1793C88.7148 24.4237 88.8224 24.7047 88.8595 24.9989C88.8966 25.2931 88.8621 25.5919 88.7589 25.8701C88.6557 26.1483 88.4868 26.3979 88.2664 26.5978C87.3544 27.636 86.3864 27.1204 85.4604 26.4933C85.3593 26.4374 85.2672 26.3669 85.1868 26.2843C83.1244 23.2882 81.1602 22.9398 78.8732 26.1798C78.1717 27.204 76.6074 28.1516 75.2605 26.7163C73.9136 25.2809 75.0571 24.1452 76.2145 23.323C80.9076 19.9995 79.5116 15.0873 79.6589 10.5862C79.708 9.19262 78.6067 9.32501 77.6737 9.30411C76.411 9.30411 75.2044 8.99056 75.2395 7.46465C75.2886 5.58338 76.8389 5.83421 78.0946 5.81331C79.3503 5.79241 80.4306 5.78544 81.5951 5.79241Z" fill="#E79DAE"/>
<path d="M11.4025 12.6556C11.4025 16.4879 11.4937 20.5639 9.72592 24.0896C9.02442 25.5458 7.0111 28.1238 5.21525 26.5631C4.02269 25.5179 4.56986 24.3056 5.31346 23.1838C6.05705 22.062 7.65648 19.8463 6.98304 18.3552C6.80669 18.0519 6.55874 17.7958 6.26055 17.6088C5.96236 17.4219 5.62288 17.3098 5.27137 17.2822C4.08582 17.0731 2.87923 17.2822 1.68668 17.1637C0.494118 17.0453 -0.0460408 16.6481 0.00306453 15.4915C0.0942602 13.4848 2.00235 13.9934 3.30014 13.9098C5.1942 13.7774 7.40394 14.4742 7.21454 11.1646C7.17245 10.426 7.10931 9.33208 6.41482 8.88615C6.13986 8.72183 5.82989 8.62398 5.50988 8.60047C4.89695 8.56459 4.28206 8.58091 3.67193 8.64925C3.05478 8.64941 2.43835 8.6075 1.82698 8.52383C1.62443 8.52573 1.42356 8.48727 1.23623 8.41073C1.04891 8.33419 0.878934 8.22113 0.736361 8.07822C0.593788 7.93531 0.48151 7.76546 0.406165 7.57871C0.33082 7.39196 0.293937 7.1921 0.297697 6.99094C0.261872 6.78831 0.269057 6.58048 0.318793 6.38077C0.368528 6.18106 0.459717 5.99387 0.586517 5.83119C0.713317 5.66852 0.872931 5.53394 1.05513 5.43609C1.23734 5.33824 1.43811 5.27927 1.64459 5.26297C4.42812 5.12034 7.21756 5.1343 9.99951 5.30477C11.164 5.39535 11.4025 6.6983 11.4025 7.80616C11.4025 9.42266 11.4025 11.0392 11.4025 12.6556Z" fill="#E79DAE"/>
<path d="M71.8231 16.6064C71.8231 19.2611 71.8231 21.9227 71.8231 24.5844C71.8231 26.0197 71.6758 27.5038 69.7186 27.5177C67.9719 27.5177 67.6141 26.2705 67.6983 24.8909C67.7684 23.379 67.3966 22.4244 65.5938 22.5707C64.6047 22.6473 63.6506 22.3756 63.5734 21.1772C63.5414 20.913 63.5697 20.645 63.6562 20.3932C63.7428 20.1414 63.8855 19.9122 64.0736 19.7227C64.2617 19.5332 64.4903 19.3883 64.7426 19.2987C64.9949 19.2091 65.2642 19.1772 65.5306 19.2053C68.2946 19.2889 67.579 17.3868 67.6843 15.8957C67.8035 14.2374 67.6843 12.8717 65.4044 12.9762C64.4293 13.018 63.5103 12.6 63.5664 11.3737C63.6225 10.1474 64.4573 9.75718 65.4675 9.77112C67.074 9.77112 67.7965 9.18583 67.7264 7.52056C67.6702 6.21761 68.3647 5.17246 69.7747 5.2282C71.3812 5.29091 71.8231 6.55206 71.8302 7.93862C71.8302 10.8302 71.8302 13.7218 71.8302 16.6134L71.8231 16.6064Z" fill="#E79DAE"/>
<path d="M16.1587 16.2442C16.1587 13.4571 16.1587 10.7049 16.1587 7.93177C16.1587 6.53824 16.4954 5.22135 18.144 5.21438C19.7925 5.20741 20.0871 6.55217 20.0661 7.93177C20.0661 8.96995 20.1362 10.0221 20.0661 11.0463C19.9328 12.7813 20.2906 13.9797 22.4091 13.9867C22.645 13.963 22.8832 13.9916 23.1067 14.0702C23.3302 14.1488 23.5334 14.2756 23.7017 14.4414C23.87 14.6073 23.9993 14.8081 24.0802 15.0294C24.1612 15.2507 24.1918 15.4871 24.1699 15.7216C24.1795 15.9565 24.1378 16.1906 24.0477 16.408C23.9577 16.6254 23.8214 16.8209 23.6481 16.9811C23.4749 17.1412 23.2688 17.2623 23.0441 17.3359C22.8193 17.4096 22.5812 17.4341 22.346 17.4078C20.038 17.3172 20.017 18.7038 20.0661 20.3342C20.1152 21.9646 20.0661 23.818 20.0661 25.5251C20.0661 26.7444 19.5049 27.5109 18.2001 27.5318C17.9359 27.5628 17.668 27.5341 17.4165 27.4479C17.1649 27.3617 16.9362 27.2202 16.7474 27.034C16.5586 26.8478 16.4145 26.6217 16.326 26.3725C16.2374 26.1233 16.2066 25.8574 16.2359 25.5948C16.1868 22.4802 16.2359 19.3239 16.2359 16.2442H16.1587Z" fill="#E79DAE"/>
<path d="M36.776 5.10966C38.5157 5.10966 40.2835 5.03302 41.9951 5.10966C43.2999 5.18631 45.1168 4.4129 45.6991 6.11997C46.0478 7.09738 46.1958 8.13429 46.1344 9.16945C46.0729 10.2046 45.8033 11.2171 45.3413 12.147C44.8643 13.1085 43.805 13.0528 42.865 12.8438C42.6604 12.8179 42.464 12.7475 42.2899 12.6376C42.1158 12.5277 41.9683 12.3811 41.8577 12.2081C41.7472 12.0351 41.6764 11.84 41.6505 11.6368C41.6245 11.4335 41.644 11.2271 41.7075 11.0322C42.3319 8.18937 40.4448 8.4402 38.649 8.46111C35.7518 8.49595 32.8475 8.46111 29.9503 8.46111C28.6806 8.46111 27.0812 8.57259 27.018 6.83764C26.9549 5.1027 28.5192 5.09573 29.824 5.08876C32.132 5.09573 34.454 5.10966 36.776 5.10966Z" fill="#E79DAE"/>
<path d="M36.6567 17.6374C33.4999 17.6374 30.3432 17.6374 27.2004 17.6374C26.1902 17.6374 25.2502 17.512 25.2011 16.2438C25.152 14.9757 26.0359 14.7319 27.0671 14.7179C28.0983 14.704 28.9401 14.6482 29.8731 14.7179C31.5638 14.8433 32.588 14.3835 32.4196 12.4465C32.2933 11.0529 33.072 10.2517 34.475 10.2726C34.742 10.2571 35.0091 10.3011 35.2568 10.4012C35.5045 10.5014 35.7266 10.6553 35.9067 10.8516C36.0869 11.0479 36.2207 11.2817 36.2982 11.536C36.3758 11.7902 36.3952 12.0584 36.3551 12.321C36.2147 14.7737 37.7581 14.7737 39.5329 14.7179C41.7496 14.6552 43.9664 14.7179 46.1831 14.7179C47.1723 14.7179 48.0842 14.8851 48.0491 16.202C48.0141 17.5189 47.0811 17.5956 46.113 17.5956C42.9702 17.6443 39.7924 17.6374 36.6567 17.6374Z" fill="#E79DAE"/>
<path d="M96.46 16.5785C96.46 19.4631 96.46 22.3408 96.46 25.2254C96.46 26.5214 96.1303 27.5456 94.5659 27.5247C93.0016 27.5038 92.6578 26.5074 92.6578 25.1975C92.6578 19.3215 92.6578 13.4454 92.6578 7.56934C92.6578 6.25246 93.1278 5.20034 94.573 5.20731C96.0181 5.21428 96.46 6.28033 96.453 7.59025C96.453 10.6142 96.46 13.5824 96.46 16.5785Z" fill="#E79DAE"/>
<path d="M62.0512 16.1883H61.9951C61.9951 13.9866 62.1634 11.7708 61.953 9.59693C61.6513 6.55903 59.617 5.17247 56.6777 5.1446C53.7384 5.11673 51.5917 6.13401 51.255 9.32519C50.7219 13.9249 50.7219 18.5702 51.255 23.1699C51.6759 26.4029 53.7033 27.6362 57.3301 27.3505C60.3886 27.1067 61.9881 25.4902 62.0231 22.4314C62.0722 20.3689 62.0512 18.2786 62.0512 16.1883ZM57.8422 22.2781C57.8406 22.5761 57.7933 22.8721 57.7019 23.156C57.6197 23.3501 57.4852 23.5179 57.3131 23.6408C57.1411 23.7638 56.9381 23.8371 56.7268 23.8528C56.5168 23.8821 56.3029 23.8639 56.1011 23.7993C55.8993 23.7348 55.7148 23.6257 55.5616 23.4802C55.4083 23.3346 55.2902 23.1565 55.2163 22.9592C55.1423 22.7618 55.1143 22.5504 55.1343 22.3408C55.0852 21.01 55.0923 19.6791 55.0852 18.3553C55.0852 16.3207 55.0852 14.2931 55.0852 12.2586C55.0852 10.8999 54.7976 8.86533 56.7198 8.86533C57.5054 8.94197 57.8422 9.6457 57.8913 10.3773C58.0549 12.593 58.1228 14.8134 58.0947 17.0384C58.09 18.7942 58.0152 20.5385 57.8702 22.2711L57.8422 22.2781Z" fill="#E79DAE"/>
<path d="M42.4652 19.6094C38.5087 19.6094 34.5452 19.6094 30.5887 19.6094C27.8949 19.6094 26.3796 20.9123 26.3235 23.5461C26.2464 26.2983 27.7265 27.873 30.5326 28.0193C32.5108 28.1169 34.489 28.0193 36.4743 28.0193C38.4596 28.0193 40.4378 28.1099 42.409 28.0193C45.1239 27.8591 46.7022 26.4655 46.6181 23.6018C46.576 20.8914 45.1449 19.6094 42.4652 19.6094ZM37.8563 25.4901C37.267 25.8663 36.4112 26.4237 35.6886 26.1868C35.0158 25.9741 34.3812 25.6566 33.8086 25.2462C32.9878 24.6609 30.8693 22.71 32.5669 21.8948C33.2819 21.6747 34.0552 21.7422 34.7205 22.0829C35.1764 22.2472 35.5958 22.4981 35.9552 22.8215C36.3584 22.4991 36.7988 22.2254 37.267 22.0062C38.0106 21.6648 38.9857 21.3861 39.6381 22.069C40.8657 23.3231 38.7963 24.8839 37.8563 25.4901V25.4901Z" fill="#E79DAE"/>
<path d="M140.5 0C135.256 0 131 4.26979 131 9.53079C131 9.77042 131.011 10.01 131.022 10.2497C131.022 10.4566 131.033 10.6745 131.054 10.8923C131.326 15.2601 133.725 19.2358 136.059 22.8085C137.037 24.3008 138.068 25.7386 139.165 27.1437C139.631 27.7428 140.315 28.2547 141.086 27.8626C141.434 27.6883 141.683 27.3615 141.922 27.0456C144.561 23.4947 147.036 19.8676 148.73 15.7503C149.359 14.2254 149.826 12.5589 149.946 10.8923C149.967 10.62 149.978 10.3368 149.989 10.0536C150 9.87934 150 9.70506 150 9.53079C150 4.26979 145.744 0 140.5 0ZM140.5 15.0096C137.482 15.0096 135.039 12.5589 135.039 9.53079C135.039 6.50272 137.482 4.05195 140.5 4.05195C143.518 4.05195 145.961 6.50272 145.961 9.53079C145.961 12.5589 143.518 15.0096 140.5 15.0096Z" fill="#CDEAFA"/>
</svg>
