<svg width="17" height="16" viewBox="0 0 17 16" fill="none" xmlns="http://www.w3.org/2000/svg">
<path d="M8.06137 5.09091C6.44981 5.09091 5.14452 6.39273 5.14452 8C5.14452 9.60727 6.44981 10.9091 8.06137 10.9091C9.67293 10.9091 10.9782 9.60727 10.9782 8C10.9782 6.39273 9.67293 5.09091 8.06137 5.09091ZM14.5805 7.27273C14.2451 4.24 11.8314 1.83273 8.79059 1.49818V0H7.33216V1.49818C4.29135 1.83273 1.87765 4.24 1.54222 7.27273H0.0400391V8.72727H1.54222C1.87765 11.76 4.29135 14.1673 7.33216 14.5018V16H8.79059V14.5018C11.8314 14.1673 14.2451 11.76 14.5805 8.72727H16.0827V7.27273H14.5805ZM8.06137 13.0909C5.23932 13.0909 2.95689 10.8145 2.95689 8C2.95689 5.18545 5.23932 2.90909 8.06137 2.90909C10.8834 2.90909 13.1659 5.18545 13.1659 8C13.1659 10.8145 10.8834 13.0909 8.06137 13.0909Z" fill="#2F5299"/>
</svg>
